<svg xmlns="http://www.w3.org/2000/svg" width="16.031" height="15.594" id="icon" viewBox="-7 -6 16 16" preserveAspectRatio="xMinYMin meet"><path d="M13.315 13.585c-.6-.043-1.292-.077-2.035-.1a6.847 6.847 0 001.672-2.245 1.6 1.6 0 00.751.429 1.561 1.561 0 00.382.047 1.591 1.591 0 00.833-.237 1.615 1.615 0 00-1.224-2.948 8.776 8.776 0 00.049-.879.562.562 0 00-.559-.564H2.835a.562.562 0 00-.559.564 7.716 7.716 0 002.46 5.833c-.742.026-1.43.059-2.032.1-2.093.147-2.7.288-2.7.934s.608.786 2.7.934c1.419.1 3.3.155 5.3.155s3.886-.055 5.306-.155c2.093-.148 2.7-.289 2.7-.934s-.602-.787-2.695-.934zm.268-4.292a.069.069 0 01.013 0 .931.931 0 011.285.315.948.948 0 01-.312 1.3.924.924 0 01-.707.111.934.934 0 01-.579-.426.23.23 0 00-.039-.043 8.388 8.388 0 00.339-1.257zM3.414 8.214h9.19c-.219 3.038-2.2 5.424-4.6 5.424s-4.37-2.382-4.59-5.424zm3.559-2.28h.037a.452.452 0 00.423-.606 3.186 3.186 0 01.123-2.295A2.925 2.925 0 008.128.668a1.077 1.077 0 00-.665-.674.454.454 0 00-.558.3.449.449 0 00.283.556.22.22 0 01.1.126 2.055 2.055 0 01-.484 1.561l-.022.037a7.01 7.01 0 01-.146.233c-.681 1.054-.885 1.883-.607 2.465a1.208 1.208 0 00.944.662zm2.386.084h.031a.425.425 0 00.4-.569 1.815 1.815 0 01.063-1.284 1.9 1.9 0 00.364-1.579.815.815 0 00-.5-.5.431.431 0 00-.523.287.424.424 0 00.282.528.306.306 0 01-.046-.016 1.16 1.16 0 01-.281.825l-.026.043-.078.125a1.744 1.744 0 00-.382 1.658.885.885 0 00.699.482z" fill="#fff" fill-rule="evenodd" /></svg>