<svg xmlns="http://www.w3.org/2000/svg" width="11.657" height="18" id="icon" viewBox="-10 -6 12 12" preserveAspectRatio="xMinYMin meet"><path d="M11.564 13.95L8.499 5.69V3.25a1.464 1.464 0 00.994-1.38v-.4A1.468 1.468 0 008.014.01h-4.37a1.469 1.469 0 00-1.48 1.46v.4a1.462 1.462 0 001 1.38v2.44L.105 13.94a1.453 1.453 0 00.142 1.37 1.5 1.5 0 001.228.65h8.722a1.5 1.5 0 001.227-.65 1.452 1.452 0 00.14-1.36zm-8.111-1.87a.5.5 0 11.5.5.5.5 0 01-.5-.5zm3.25.44a.86.86 0 11-.871.86.862.862 0 01.871-.86zm-.742-1.9a.628.628 0 011.256 0 .628.628 0 01-1.256 0zM4.133 5.86V2.37h-.489a.5.5 0 01-.5-.5v-.4a.5.5 0 01.5-.49h4.374a.5.5 0 01.5.49v.4a.506.506 0 01-.506.5h-.489v3.49l.859 2.31-.034.03c-.639.66-5.308.74-5.308.74h-.045zm1.353 1.87a.685.685 0 00.681-.68.682.682 0 00-1.363 0 .684.684 0 00.682.68z" fill="#fff" fill-rule="evenodd"/></svg>