<svg xmlns="http://www.w3.org/2000/svg" width="16" height="15" id="icon" viewBox="-7 -8 16 16" preserveAspectRatio="xMinYMin meet"><path d="M15.936.03a.159.159 0 00-.174-.02L.084 7.94a.171.171 0 00-.088.16.169.169 0 00.112.14L5.07 9.8a.15.15 0 00.157-.03l7.547-6.39-5.8 6.79a.169.169 0 00-.032.15.178.178 0 00.108.11l5.824 1.76h.047a.116.116 0 00.08-.02.164.164 0 00.077-.1L15.989.19a.149.149 0 00-.053-.16zM8.757 12.17l-1.609-.49a.147.147 0 00-.143.02.161.161 0 00-.066.13v3a.16.16 0 00.117.16c.014 0 .029.01.045.01a.162.162 0 00.136-.08l1.609-2.52a.15.15 0 00.015-.14.155.155 0 00-.104-.09z" fill="#fff" fill-rule="evenodd"/></svg>