<svg xmlns="http://www.w3.org/2000/svg" width="16" height="16" id="icon" viewBox="-6 -5 16 16" preserveAspectRatio="xMinYMin meet">

<path d="M14.679 3.992H8.998l2.241-2.682a.531.531 0 00.1.02.666.666 0 10-.667-.665.65.65 0 00.046.225l-2.592 3.1h-.244L5.291.89a.665.665 0 10-.622.44.494.494 0 00.1-.02l2.242 2.682H1.33A1.333 1.333 0 00-.003 5.323v9.321a1.332 1.332 0 001.333 1.331h13.342a1.332 1.332 0 001.333-1.331V5.325a1.333 1.333 0 00-1.326-1.333zM12.01 13.31a1.333 1.333 0 01-1.334 1.332h-8a1.334 1.334 0 01-1.335-1.332V6.655a1.333 1.333 0 011.335-1.332h8a1.333 1.333 0 011.334 1.332v6.655zm1.966-5.948a.951.951 0 11.952-.951.952.952 0 01-.952.951z" fill="#fff" fill-rule="evenodd"/></svg>